<?xml version="1.0" standalone="no"?>
<!DOCTYPE svg PUBLIC "-//W3C//DTD SVG 20010904//EN"
 "http://www.w3.org/TR/2001/REC-SVG-20010904/DTD/svg10.dtd">
<svg version="1.0" xmlns="http://www.w3.org/2000/svg"
 width="1024.000000pt" height="1024.000000pt" viewBox="0 0 1024.000000 1024.000000"
 preserveAspectRatio="xMidYMid meet">
<metadata>
Created by potrace 1.11, written by Peter Selinger 2001-2013
</metadata>
<g transform="translate(0.000000,1024.000000) scale(0.100000,-0.100000)"
fill="#000000" stroke="none">
<path d="M4820 10147 c-3 -2 -58 -8 -123 -11 -65 -4 -127 -9 -138 -11 -11 -2
-48 -7 -82 -10 -34 -3 -87 -10 -117 -15 -30 -5 -72 -12 -94 -15 -21 -2 -46 -7
-55 -9 -9 -3 -36 -7 -61 -10 -55 -7 -101 -16 -110 -21 -4 -2 -22 -7 -41 -10
-19 -3 -54 -11 -79 -16 -25 -6 -53 -12 -62 -14 -9 -2 -52 -13 -95 -25 -502
-139 -954 -343 -1383 -625 -112 -74 -327 -229 -340 -245 -3 -4 -30 -26 -60
-49 -200 -157 -510 -458 -711 -691 -310 -361 -591 -802 -759 -1190 -18 -41
-38 -88 -46 -105 -107 -242 -245 -706 -289 -975 -7 -41 -16 -96 -21 -125 -16
-85 -41 -309 -49 -430 -4 -49 -8 -108 -10 -130 -5 -51 -5 -525 0 -585 2 -25 6
-91 10 -148 3 -57 8 -111 10 -122 2 -10 6 -47 10 -82 3 -35 10 -88 15 -118 5
-30 12 -73 15 -95 14 -94 18 -117 46 -250 135 -642 402 -1248 787 -1785 69
-96 100 -137 195 -255 271 -337 652 -699 1017 -966 89 -66 320 -219 376 -249
21 -12 66 -37 99 -56 421 -242 952 -435 1455 -528 144 -26 289 -47 435 -61 17
-2 68 -7 115 -12 169 -16 923 -8 1000 12 8 2 47 6 85 10 73 7 123 13 165 20
14 3 41 7 60 10 733 116 1436 409 2051 855 446 324 881 762 1210 1218 205 285
424 683 544 987 26 66 51 129 56 140 22 52 114 343 124 395 2 8 10 40 19 70
20 68 72 318 81 384 3 27 8 52 9 55 2 3 7 31 10 62 4 31 9 67 11 80 3 13 7 52
11 87 3 35 7 72 9 83 27 140 27 971 -1 1112 -2 10 -6 46 -9 80 -3 34 -10 87
-15 117 -5 30 -12 73 -15 94 -3 21 -7 48 -10 60 -2 12 -7 37 -9 56 -3 19 -15
80 -27 135 -11 55 -22 109 -25 119 -25 126 -161 555 -213 671 -5 11 -16 36
-24 55 -63 147 -87 201 -145 315 -36 72 -83 158 -104 193 -21 34 -38 65 -38
68 0 9 -141 227 -213 329 -338 478 -788 932 -1267 1277 -95 68 -353 235 -390
251 -8 4 -31 17 -50 29 -126 77 -433 222 -624 295 -263 100 -635 204 -853 239
-19 3 -45 8 -57 10 -29 6 -151 24 -206 30 -25 3 -56 7 -70 9 -14 3 -59 7 -100
11 -41 3 -86 8 -100 11 -31 6 -733 16 -740 10z m630 -981 c47 -4 101 -9 120
-11 19 -3 58 -7 85 -10 61 -6 222 -32 290 -45 28 -6 59 -12 70 -14 123 -25
348 -89 500 -143 544 -194 1050 -524 1495 -973 128 -129 219 -230 280 -310 19
-24 43 -53 53 -65 59 -65 241 -334 325 -480 50 -87 150 -287 190 -380 60 -138
145 -378 167 -470 3 -11 16 -65 30 -120 41 -158 79 -367 90 -490 4 -38 9 -78
11 -88 32 -171 23 -758 -17 -1022 -6 -38 -13 -83 -15 -100 -7 -45 -22 -126
-39 -205 -3 -14 -7 -35 -9 -47 -28 -147 -144 -500 -217 -660 -10 -23 -19 -45
-19 -48 0 -12 -145 -296 -197 -385 -63 -108 -200 -317 -212 -325 -5 -2 -37 30
-72 73 -64 77 -258 276 -334 342 -359 313 -819 527 -1275 594 -146 22 -256 30
-390 30 -126 1 -128 0 -280 -39 -303 -78 -547 -129 -690 -143 -156 -15 -501
-8 -650 14 -38 5 -292 57 -340 69 -8 2 -87 21 -175 44 -231 58 -271 63 -407
56 -122 -6 -202 -12 -248 -20 -14 -2 -45 -6 -70 -9 -25 -3 -56 -8 -70 -11 -14
-3 -41 -8 -60 -11 -43 -8 -164 -39 -245 -64 -466 -142 -894 -435 -1243 -853
-36 -42 -68 -77 -71 -77 -6 0 -31 37 -131 195 -85 134 -113 184 -203 365 -102
206 -118 242 -177 410 -107 302 -177 589 -205 845 -3 28 -7 66 -10 85 -26 218
-26 716 0 915 2 17 6 55 10 85 5 50 11 89 21 145 2 11 7 40 10 65 3 25 8 48
10 51 2 4 6 24 10 45 3 22 10 57 16 79 5 22 12 51 15 65 19 112 125 428 207
618 409 951 1283 1796 2241 2167 123 48 350 123 395 131 14 3 39 9 55 14 36
11 210 50 245 55 14 2 68 10 121 19 52 8 120 18 150 22 30 3 65 7 79 10 14 2
81 7 150 10 69 3 126 7 128 9 5 4 417 -3 502 -9z m-1470 -6343 c47 -14 90 -26
95 -27 6 -2 30 -8 55 -15 137 -39 430 -96 555 -107 28 -3 56 -7 64 -10 21 -7
235 -17 371 -17 127 0 309 8 390 18 169 21 354 53 465 81 11 3 31 7 45 10 27
6 110 29 242 68 91 26 113 27 268 5 105 -15 130 -19 175 -30 22 -5 50 -12 62
-14 46 -11 223 -76 289 -107 250 -119 481 -321 658 -575 20 -29 36 -58 36 -65
-1 -15 -188 -164 -325 -260 -318 -223 -662 -398 -1014 -514 -110 -37 -340 -99
-401 -109 -19 -3 -43 -8 -52 -11 -37 -11 -215 -40 -303 -49 -33 -4 -73 -9 -90
-11 -90 -13 -215 -18 -435 -18 -258 0 -398 7 -545 28 -16 3 -52 8 -80 11 -272
36 -604 124 -885 235 -110 44 -342 152 -415 194 -286 165 -411 250 -657 446
-31 25 -57 51 -57 57 -1 17 86 140 157 223 292 340 657 533 1092 576 36 4 66
7 67 8 14 11 106 0 173 -21z"/>
<path d="M5027 8204 c-1 -1 -42 -5 -92 -8 -469 -35 -887 -239 -1233 -601 -229
-240 -385 -515 -467 -826 -13 -52 -27 -116 -31 -144 -3 -27 -8 -53 -10 -56 -8
-14 -18 -176 -18 -304 -1 -248 22 -406 85 -610 18 -55 36 -104 40 -109 5 -6 9
-16 9 -23 0 -7 19 -53 42 -101 211 -435 604 -806 1033 -975 156 -62 252 -87
445 -117 150 -23 466 -21 620 4 262 43 529 147 739 288 363 244 645 604 775
991 76 224 101 393 100 662 -1 309 -56 561 -175 812 -45 96 -125 235 -155 272
-7 9 -34 45 -61 81 -53 73 -236 260 -328 337 -231 193 -579 353 -865 398 -25
4 -53 9 -63 11 -54 10 -382 25 -390 18z m268 -988 c17 -3 41 -9 55 -12 14 -3
32 -7 40 -9 8 -2 42 -13 75 -26 226 -84 422 -263 533 -484 32 -65 70 -178 78
-235 3 -19 7 -48 11 -64 6 -32 6 -219 -1 -251 -2 -11 -7 -42 -11 -69 -9 -66
-59 -208 -97 -276 -113 -204 -328 -387 -535 -454 l-53 -18 0 -76 c-1 -42 -1
-177 -1 -299 l1 -223 -271 0 c-251 0 -270 1 -268 18 1 9 1 144 0 299 l-1 281
-52 18 c-227 74 -453 278 -560 504 -26 56 -56 138 -64 175 -2 11 -6 31 -9 45
-13 69 -15 93 -16 186 -2 183 32 324 111 471 142 264 426 468 697 499 32 3 60
8 61 9 6 6 245 -3 277 -9z"/>
<path d="M4852 5358 c2 -23 9 -43 15 -45 9 -3 12 5 9 26 l-3 31 247 0 247 0
-2 -27 c0 -16 -8 -29 -22 -34 -65 -24 -276 -31 -382 -12 -41 7 -77 11 -80 9
-3 -2 -6 -127 -6 -278 l0 -273 245 -3 245 -2 0 280 c0 217 3 281 12 285 8 2
13 21 13 45 l0 40 -270 0 -271 0 3 -42z"/>
</g>
</svg>
